<svg width="276" height="246" fill="none" xmlns="http://www.w3.org/2000/svg"><circle cx="170" cy="106" r="106" fill="#38C8FF" fill-opacity=".1"/><path d="m204.5 158.511 9.3.36-9.3.36v-.72ZM204.5 162.07l15.75.37-15.75.36v-.73ZM204.5 165.561l10.94.36-10.94.37v-.73Z" fill="#485FC4"/><path d="M146.522 72.86h48.68a4.479 4.479 0 0 1 4.48 4.48v98.21a4.48 4.48 0 0 1-4.48 4.48h-48.16a4.479 4.479 0 0 1-4.48-4.48V76.81a4 4 0 0 1 3.96-3.95Z" fill="#DBF5FE"/><path d="M151.617 111.57h38.57V90.96h-38.57v20.61Z" fill="#FDB633"/><path d="M151.617 111.57h38.57V90.96h-38.57v20.61Zm1.6-14.16a5.63 5.63 0 0 0 5.56-4.83h24.23a5.641 5.641 0 0 0 5.57 4.83v7.72a5.623 5.623 0 0 0-5.56 4.82h-24.24a5.618 5.618 0 0 0-5.56-4.82v-7.72Z" fill="#CC8719"/><path d="M170.901 104.64a3.37 3.37 0 1 0 0-6.74 3.37 3.37 0 0 0 0 6.74Z" fill="#CC8719"/><path d="M148.268 146.84h38.57v-20.61h-38.58l.01 20.61Z" fill="#2ED06E"/><path d="M148.268 146.84h38.57v-20.61h-38.58l.01 20.61Zm1.63-14.16a5.616 5.616 0 0 0 5.56-4.82h24.24a5.618 5.618 0 0 0 5.56 4.82v7.73a5.62 5.62 0 0 0-5.59 4.82h-24.23a5.643 5.643 0 0 0-5.54-4.82v-7.73Z" fill="#27B35F"/><path d="M167.55 139.91a3.37 3.37 0 1 0 0-6.74 3.37 3.37 0 0 0 0 6.74Z" fill="#27B35F"/><path d="M138.469 179.101v2.62h65.29v-2.62h-65.29Z" fill="url(#a)"/><path d="m129.432 131.401-8.62-.38 8.62-.38v.76ZM129.43 127.69l-14.61-.38 14.61-.38v.76ZM129.432 124.22l-7.76-.38 7.76-.38v.76Z" fill="#1790BF"/><path d="M168.07 172.421h38.57v-20.6h-38.57v20.6Z" fill="#5A80F9"/><path d="M168.07 172.421h38.57v-20.6h-38.57v20.6Zm1.61-14.19a5.648 5.648 0 0 0 5.56-4.83h24.23a5.62 5.62 0 0 0 5.56 4.83v7.73a5.62 5.62 0 0 0-5.55 4.82h-24.24a5.62 5.62 0 0 0-5.56-4.82v-7.73Z" fill="#485FC4"/><path d="M187.362 165.49a3.37 3.37 0 1 0 0-6.74 3.37 3.37 0 0 0 0 6.74Z" fill="#485FC4"/><path d="M190.123 102.771v1.6l-13.85-.96 13.85-.64Z" fill="url(#b)"/><path d="M175.898 103.32h38.57V82.71h-38.57v20.61Z" fill="#2ED06E"/><path d="M175.898 103.32h38.57V82.71h-38.57v20.61Zm1.6-14.16a5.63 5.63 0 0 0 5.56-4.83h24.24a5.62 5.62 0 0 0 5.56 4.83v7.73a5.62 5.62 0 0 0-5.56 4.82h-24.25a5.627 5.627 0 0 0-5.56-4.82l.01-7.73Z" fill="#27B35F"/><path d="M195.159 96.39a3.37 3.37 0 1 0 0-6.74 3.37 3.37 0 0 0 0 6.74ZM214.344 89.31l4.93.38-4.93.38v-.76ZM214.344 93.18l14.96.38-14.96.38v-.76ZM214.344 96.81l10.39.38-10.39.38v-.76Z" fill="#27B35F"/><path d="M167.542 126.23c-.11.32.63 12 .63 12l-19.07-.74 17.48-.75.96-10.51Z" fill="url(#c)"/><path d="M128.904 137.48h38.57v-20.6h-38.63l.06 20.6Z" fill="#20BAFC"/><path d="M128.904 137.48h38.57v-20.6h-38.63l.06 20.6Zm1.6-14.16a5.628 5.628 0 0 0 5.56-4.83h24.24a5.618 5.618 0 0 0 5.56 4.82v7.73a5.623 5.623 0 0 0-5.56 4.82h-24.28a5.643 5.643 0 0 0-5.57-4.82l.05-7.72Z" fill="#1790BF"/><path d="M148.128 130.551a3.37 3.37 0 1 0 0-6.74 3.37 3.37 0 0 0 0 6.74Z" fill="#1790BF"/><path opacity=".7" d="M255.45 178.65c-8.69-.17-27.7.69-27.7 2.62l4.5.33h23.2" fill="url(#d)"/><path d="M244.703 127.65c.472.295.96.566 1.46.81l.15-.22c.61-1.4 1.26-2.88 1.66-3.82l-.94-.49-2.33 3.72ZM103.883 188.301l1.57.43 1.01-3.64-1.57-.43-1.01 3.64Z" fill="#C58F62"/><path d="M108.721 189.46a.345.345 0 0 0-.06-.34 9.083 9.083 0 0 0-4.76-1.47.294.294 0 0 0-.26.31v1.4a.288.288 0 0 0 .26.31h4.57a.257.257 0 0 0 .25-.21Z" fill="#253655"/><path opacity=".7" d="M76.64 186.68c9.49-.21 31.881.52 31.891 2.58l.09.39-9.59.37-22.37.07" fill="url(#e)"/><path d="M93.903 169.461c.15 1.19 3.66 2.13 7.721 1.64 4.06-.49 8-1.74 7.36-3.3-.44-1.11-3.95-1.87-8-1.37s-7.23 1.85-7.08 3.03Z" fill="#CC8719"/><path d="m96.69 168.03 9.99-.499-.262-5.23-9.99.499.262 5.23Z" fill="#253655"/><path d="m94.36 188.671 1.57.43 1.01-3.64-1.57-.43-1.01 3.64Z" fill="#C58F62"/><path d="M104.286 185.53c.062.04.129.071.2.09a3.696 3.696 0 0 0 1.78 0 .543.543 0 0 0 .26-.14.628.628 0 0 0 .23-.38s1.84-6 1.85-8.93c0-5.38-1.68-10.35-2-10.45l-7.52-1.36a.674.674 0 0 0-.804.63.668.668 0 0 0 .094.37l4 6.73v.08c.77 1.75 1.61 3.12 1.61 5 0 2.65-.16 6.72-.07 7.81a.659.659 0 0 0 .37.55Z" fill="#253655"/><path d="m95.189 185.67.17.14a3.81 3.81 0 0 0 1.71.47.586.586 0 0 0 .29-.07.628.628 0 0 0 .32-.3s3.44-5.28 4.22-8.1c1-3.51 1.28-12.34 1-12.51l-7-1.42c-.52-.25-.62.19-.48.75l1.5 7.57v.08c.26 1.9.7 3.45.18 5.29-.72 2.54-2 6.42-2.19 7.5a.66.66 0 0 0 .28.6Z" fill="#2F4367"/><path d="m101.152 143.23-.25-1.89-1.27.44a6.629 6.629 0 0 1-2.73.35l-1.66-.13.22 1.87-3.15.4.28 7.56c.63 2.81 1.64 5.86 1.71 8.75l-.4 8.86c7.39-.86 7.92-3.91 7.92-3.91s-.42 2 3.13 2.35c2.73.29 3.68-.59 4.1.22a2.89 2.89 0 0 0-.12-.61 77.503 77.503 0 0 1-2.62-10c-.36-2.16-.58-14.81-.58-14.81l-4.58.55Z" fill="#FDB633"/><path d="M99.198 189.831a.33.33 0 0 0-.06-.33 8.998 8.998 0 0 0-4.76-1.47.262.262 0 0 0-.106.029.271.271 0 0 0-.14.162.28.28 0 0 0-.014.109v1.41a.28.28 0 0 0 .26.3h4.57a.26.26 0 0 0 .25-.21Z" fill="#253655"/><path d="M101.987 167.23a19.999 19.999 0 0 0 .141-11.49c-.47-1.57-2.22-8.13-2.68-9.69a20.87 20.87 0 0 1-.63-5h-.63c.018 1.687.236 3.365.65 5 .47 1.58 2.22 8.14 2.68 9.69a19.854 19.854 0 0 1-.14 11.37l.609.12Z" fill="#CC8719"/><path d="M77.99 139.73c.746 0 1.35-.6 1.35-1.34 0-.74-.604-1.34-1.35-1.34-.745 0-1.35.6-1.35 1.34 0 .74.605 1.34 1.35 1.34Z" fill="#C58F62"/><path d="M93.332 153.7c-1.55-6.32-4.61-4.24-8.71-7.17a50.591 50.591 0 0 1-6.31-5.83l1.87-1.47s4.14 3.4 5.92 4c6.08 1.88 10.28.06 9.52.57-2.59 1.68-2.29 9.9-2.29 9.9Z" fill="#FDB633"/><path d="M98.9 140.391a3.184 3.184 0 0 1-4.29-1.27 3.15 3.15 0 0 1 1.29-4.27 3.169 3.169 0 0 1 4.29 1.27 3.151 3.151 0 0 1-1.29 4.27Z" fill="#C58F62"/><path d="m97.898 138.701-.17.07-.15-.37c.482-.183.878-.54 1.11-1l.21-.17a1.425 1.425 0 0 0 1.2-.09l.18.37a1.938 1.938 0 0 1-1.34.16c-.235.44-.597.799-1.04 1.03Z" fill="#253655"/><path d="M95.017 139.131c.229-.145.264-.501.078-.795-.186-.294-.522-.415-.751-.27-.229.144-.263.5-.078.794.186.294.523.415.751.271Z" fill="#C58F62"/><path d="M98.463 132.231a2.425 2.425 0 0 0-1.46.35 3.332 3.332 0 0 0-2.87.33c-.86.53-1.73 1.76-1.54 2.6-.136.127-.244.28-.32.45-.25.86 1.61 3.6 2.36 3.19a8.927 8.927 0 0 0 3.36-3.08 3.003 3.003 0 0 0 1.77-.53c.48-.44-.27-1.68-.85-2.17-.01-.64-.15-1.06-.45-1.14Z" fill="#253655"/><path d="M111.639 131.381c.746 0 1.35-.6 1.35-1.34 0-.74-.604-1.34-1.35-1.34-.746 0-1.35.6-1.35 1.34 0 .74.604 1.34 1.35 1.34Z" fill="#C58F62"/><path d="M105.799 151.1c-.14-5.37 3-3.55 5.54-10.45.5-1.34 1.36-8.41 1.36-8.41l-2.38-.34s-1 5.78-2 7.36c-2 3.16-7.28 3.81-7.28 3.81l4.76 8.03Z" fill="#FDB633"/><path d="m231.433 180.201-1.3.34-2.11-5.32 2.47-.64.94 5.62Z" fill="#C58F62"/><path d="M227.662 181.06a.302.302 0 0 1-.007-.152.302.302 0 0 1 .067-.138 7.126 7.126 0 0 1 3.09-.85h.64c.062.008.12.039.161.087.041.048.062.11.059.173v.81a.25.25 0 0 1-.22.26h-3.55a.202.202 0 0 1-.161-.043.203.203 0 0 1-.079-.147Z" fill="#253655"/><path d="M232.337 130.8c1.64 0 2.97-1.419 2.97-3.17 0-1.75-1.33-3.17-2.97-3.17-1.64 0-2.97 1.42-2.97 3.17 0 1.751 1.33 3.17 2.97 3.17ZM235.913 180.381h-1.33l-.7-5.68h2.56l-.53 5.68Z" fill="#C58F62"/><path d="M238.351 141.13v-3a26.09 26.09 0 0 0-12.18 0v2.19a9.73 9.73 0 0 0-3.11 7.2c0 1.48-.46 9.48 1 16.72a55.42 55.42 0 0 0 3.24 10.92c.6.6 3.08.53 3.6 0 .3-.29-.59-5.94-.38-11 .17-4 1.14-10.72 1.14-10.72h.08s.8 21.1 1.4 21.7a4.002 4.002 0 0 0 3.61 0c.55-.55 5.06-22.14 4.3-27.63a10.732 10.732 0 0 0-2.7-6.38Z" fill="#485CC7"/><path d="m238.417 137.54-.05.92a26.222 26.222 0 0 0-12.18 0v-1.56a3.526 3.526 0 0 0-.29-1.27l-.92-2.4c.47-.6 2.21-1 4-.88h6.53c1.76-.08 3.49.28 4 .88l-.74 2.58a7.05 7.05 0 0 0-.35 1.73Z" fill="#253655"/><path d="M248.088 123.911c.558 0 1.01-.448 1.01-1 0-.553-.452-1-1.01-1s-1.01.447-1.01 1c0 .552.452 1 1.01 1Z" fill="#C58F62"/><path d="M236.32 132.371a19.035 19.035 0 0 0 5.56-1 3.603 3.603 0 0 0 1.5-1.42c.38-.68.94-1.65 1.51-2.65 0 0 .24.21.3.25.149.115.314.206.49.27.25.068.504.122.76.16a12.596 12.596 0 0 1-1.95 4c-1 1.38-4.2 2.52-5.45 3.56a2 2 0 0 0-.45.74" fill="#253655"/><path d="M234.822 123.6a5.593 5.593 0 0 1 1.65 2.94c.23 1 .25 8.09-.07 8.59-.73 1.1-2.43 1-2.64.35-.21-.65.44-7 .38-7.1a18.888 18.888 0 0 1-3-3.19 4.264 4.264 0 0 1-1.3 1.34 7.89 7.89 0 0 0 .16 2.48 2.6 2.6 0 0 0 1.78 1.72v1.67h-3.11c.34-1.23.2-5.77.34-6.73.18-1.22.71-2 1.82-1.69.68-1.53 2.92-1.3 3.99-.38Z" fill="#77D9F7"/><path d="M232.01 181.441a.334.334 0 0 1 0-.29 7.319 7.319 0 0 1 3.1-.86h.64a.247.247 0 0 1 .22.26v.81a.253.253 0 0 1-.22.26h-3.59a.21.21 0 0 1-.102-.068.205.205 0 0 1-.048-.112Z" fill="#253655"/><path d="M218.413 139.231c0-.56-.1-1.11-.19-1.67h-.27l-4.07.9s.07.67.12 1l4.41-.23Z" fill="#C58F62"/><path d="M225.473 132.991c-.53-.14-2 2.1-2.79 2.92a3.546 3.546 0 0 1-1.8 1c-.76.21-1.86.41-3 .66.062.112.116.229.16.35.066.176.103.362.11.55a6.466 6.466 0 0 1-.07.76 25.242 25.242 0 0 0 4.39-.67c1.05-.31 3.16-3.26 3.57-2.53.54 1 .38-.89.65-1.18" fill="#253655"/><path d="M212.393 140.19c.558 0 1.01-.447 1.01-1 0-.552-.452-1-1.01-1s-1.01.448-1.01 1c0 .553.452 1 1.01 1Z" fill="#C58F62"/><path opacity=".32" d="M198.73 77.06v98.421a4.433 4.433 0 0 1-3.31 4.3h-5.52l-44.83-107.16h49.22a4.44 4.44 0 0 1 4.44 4.44Z" fill="#F3F5F7"/><path d="M194.146 73.89a4.352 4.352 0 0 1 4.35 4.34v96.5a4.347 4.347 0 0 1-4.35 4.351h-46.25a4.358 4.358 0 0 1-4.36-4.351v-97a3.833 3.833 0 0 1 1.129-2.718 3.832 3.832 0 0 1 2.721-1.121h46.8-.04Zm.04-1.88h-46.8a5.729 5.729 0 0 0-5.73 5.72v97a6.253 6.253 0 0 0 6.24 6.23h46.29a6.237 6.237 0 0 0 6.23-6.23v-96.5a6.24 6.24 0 0 0-6.23-6.23v.01Z" fill="#38517B"/><path d="M158.438 73.32h25.12v2a2.689 2.689 0 0 1-2.66 2.64h-19.77a2.69 2.69 0 0 1-2.69-2.73v-2 .09Z" fill="#38517B"/><path d="m76.738 135.968-.137.03a.224.224 0 0 1-.165-.03.223.223 0 0 1-.096-.139l-3.213-14.744.567-.123 3.212 14.744a.22.22 0 0 1-.168.262Z" fill="#253655"/><path d="M74.43 127.691h1.86a20.702 20.702 0 0 0 9.13-2l1.68-.81-3-2.44 1.14-4.08-1.25.59a20.43 20.43 0 0 1-9.13 2H73l1.43 6.74Z" fill="#495FC4"/><path d="m249.327 120.872-.14.006a.22.22 0 0 1-.23-.209l-.705-15.074.579-.027.706 15.074a.221.221 0 0 1-.21.23Z" fill="#253655"/><path d="m248.499 112.331 1.83.34a20.5 20.5 0 0 0 9.34-.44l1.79-.51-2.56-2.92 1.81-3.83-1.33.37a20.306 20.306 0 0 1-9.33.44l-1.83-.34.28 6.89Z" fill="#20BAFC"/><circle opacity=".6" r="33" transform="matrix(1 0 0 -1 33 39)" fill="#38C8FF" fill-opacity=".1"/><path d="M32.946 40h2.32V26.26h-1.88l-4.02 2.92 1.1 1.72 2.48-1.86V40Z" fill="#37517E"/><defs><linearGradient id="a" x1="138.469" y1="180.411" x2="203.759" y2="180.411" gradientUnits="userSpaceOnUse"><stop stop-opacity="0"/><stop offset=".07" stop-opacity=".16"/><stop offset=".5" stop-opacity=".3"/><stop offset=".93" stop-opacity=".16"/><stop offset="1" stop-opacity="0"/></linearGradient><linearGradient id="b" x1="2467.06" y1="190.259" x2="2631.52" y2="258.047" gradientUnits="userSpaceOnUse"><stop stop-opacity="0"/><stop offset=".07" stop-opacity=".16"/><stop offset=".5" stop-opacity=".3"/><stop offset=".93" stop-opacity=".16"/><stop offset="1" stop-opacity="0"/></linearGradient><linearGradient id="c" x1="2790.11" y1="1124.75" x2="3152.54" y2="1151.93" gradientUnits="userSpaceOnUse"><stop stop-opacity="0"/><stop offset=".07" stop-opacity=".16"/><stop offset=".5" stop-opacity=".3"/><stop offset=".93" stop-opacity=".16"/><stop offset="1" stop-opacity="0"/></linearGradient><linearGradient id="d" x1="255.45" y1="180.12" x2="227.75" y2="180.12" gradientUnits="userSpaceOnUse"><stop stop-opacity="0"/><stop offset=".15" stop-opacity=".05"/><stop offset="1" stop-opacity=".1"/></linearGradient><linearGradient id="e" x1="-180007" y1="3310.47" x2="-178985" y2="3306.01" gradientUnits="userSpaceOnUse"><stop stop-opacity="0"/><stop offset=".15" stop-opacity=".05"/><stop offset="1" stop-opacity=".1"/></linearGradient></defs></svg>